# xmcd CD database file
#
# Track frame offsets:
#	150
#	16627
#	32970
#	52505
#	75987
#	95135
#	121487
#	136460
#	151940
#	179412
#	195312
#	214525
#	230822
#
# Disc length: 3382 seconds
#
# Revision: 1
# Processed by: cddbd v1.4PL0 Copyright (c) Steve Scherf et al.
# Submitted via: CDex 1.50beta10
#
DISCID=9e0d340d
DTITLE=Charles Walker - I'm Available
DYEAR=1999
DGENRE=Blues
TTITLE0=Homewrecker Legs
TTITLE1=Leavin' This Old Town
TTITLE2=Fleetwood Cadillac
TTITLE3=Make It Rain
TTITLE4=Nothing a Young Girl Can Do
TTITLE5=Need Somebody
TTITLE6=I'm Available
TTITLE7=Judge of Hearts
TTITLE8=The Monkey Song
TTITLE9=You Got the Walk
TTITLE10=The Tattler
TTITLE11=When I'm Gone
TTITLE12=The Very Thing That Makes You Rich
EXTD=YEAR: 1999
EXTT0=
EXTT1=
EXTT2=
EXTT3=
EXTT4=
EXTT5=
EXTT6=
EXTT7=
EXTT8=
EXTT9=
EXTT10=
EXTT11=
EXTT12=
PLAYORDER=
